HIERARCHY
ROOT Pelvis
{
	OFFSET 0.000000 0.941512 0.000000
	CHANNELS 6 Xposition Yposition Zposition Zrotation Yrotation Xrotation 
	JOINT Pelvis_L_Hip
	{
		OFFSET 0.000000 0.000000 0.000000
		CHANNELS 3 Zrotation Yrotation Xrotation
		JOINT L_Hip
		{
			OFFSET 0.062321 -0.080322 -0.016990
			CHANNELS 3 Zrotation Yrotation Xrotation
			JOINT L_Knee
			{
				OFFSET 0.093051 -0.381305 -0.029784
				CHANNELS 3 Zrotation Yrotation Xrotation
				JOINT L_Ankle
				{
					OFFSET -0.010371 -0.431000 -0.033614
					CHANNELS 3 Zrotation Yrotation Xrotation
					End Site #name: L_Foot
					{
						OFFSET 0.069299 -0.038670 0.119418
					}
				}
			}
		}
	}
	JOINT Pelvis_R_Hip
	{
		OFFSET 0.000000 0.000000 0.000000
		CHANNELS 3 Zrotation Yrotation Xrotation
		JOINT R_Hip
		{
			OFFSET -0.055334 -0.094904 -0.002373
			CHANNELS 3 Zrotation Yrotation Xrotation
			JOINT R_Knee
			{
				OFFSET -0.064207 -0.384370 -0.019592
				CHANNELS 3 Zrotation Yrotation Xrotation
				JOINT R_Ankle
				{
					OFFSET 0.025418 -0.419734 -0.065953
					CHANNELS 3 Zrotation Yrotation Xrotation
					End Site #name: R_Foot
					{
						OFFSET -0.057233 -0.039888 0.132134
					}
				}
			}
		}
	}
	JOINT Pelvis_Spine1
	{
		OFFSET 0.000000 0.000000 0.000000
		CHANNELS 3 Zrotation Yrotation Xrotation
		JOINT Spine1
		{
			OFFSET -0.005562 0.124093 -0.043360
			CHANNELS 3 Zrotation Yrotation Xrotation
			JOINT Spine2
			{
				OFFSET 0.012244 0.139499 0.029894
				CHANNELS 3 Zrotation Yrotation Xrotation
				JOINT Spine3
				{
					OFFSET -0.002556 0.056561 0.009225
					CHANNELS 3 Zrotation Yrotation Xrotation
					JOINT Spine3_Neck
					{
						OFFSET 0.000000 0.000000 0.000000
						CHANNELS 3 Zrotation Yrotation Xrotation
						JOINT Neck
						{
							OFFSET -0.005205 0.217920 -0.024551
							CHANNELS 3 Zrotation Yrotation Xrotation
							End Site #name: Head
							{
								OFFSET 0.002365 0.091850 0.046637
							}
						}
					}
					JOINT Spine3_L_Collar
					{
						OFFSET 0.000000 0.000000 0.000000
						CHANNELS 3 Zrotation Yrotation Xrotation
						JOINT L_Collar
						{
							OFFSET 0.072225 0.116603 -0.009480
							CHANNELS 3 Zrotation Yrotation Xrotation
							JOINT L_Shoulder
							{
								OFFSET 0.115937 -0.058643 -0.021018
								CHANNELS 3 Zrotation Yrotation Xrotation
								JOINT L_Elbow
								{
									OFFSET 0.021994 -0.254722 -0.024492
									CHANNELS 3 Zrotation Yrotation Xrotation
									End Site #name: L_Wrist
									{
										OFFSET 0.048810 -0.240214 0.103329
									}
								}
							}
						}
					}
					JOINT Spine3_R_Collar
					{
						OFFSET 0.000000 0.000000 0.000000
						CHANNELS 3 Zrotation Yrotation Xrotation
						JOINT R_Collar
						{
							OFFSET -0.073372 0.120704 -0.024611
							CHANNELS 3 Zrotation Yrotation Xrotation
							JOINT R_Shoulder
							{
								OFFSET -0.108089 -0.054969 -0.020504
								CHANNELS 3 Zrotation Yrotation Xrotation
								JOINT R_Elbow
								{
									OFFSET -0.033684 -0.260739 0.009889
									CHANNELS 3 Zrotation Yrotation Xrotation
									End Site #name: R_Wrist
									{
										OFFSET -0.067980 -0.232763 0.118463
									}
								}
							}
						}
					}
				}
			}
		}
	}
}
MOTION
Frames: 7
Frame Time: 0.041667
0.011720 0.889313 0.088612 -2.925520 -0.008584 3.514580 0.000000 0.000000 0.000000 13.763509 -4.679081 -30.331522 5.493282 -1.135477 9.689306 -16.093068 -6.856245 21.034633 0.000000 0.000000 0.000000 -0.357605 0.629921 -3.691056 -3.315919 2.283279 18.924760 -6.935127 6.079679 -18.982177 0.000000 0.000000 0.000000 6.434717 -0.819262 -4.173873 -6.323543 4.916460 34.900799 2.148926 -0.130598 -28.571082 0.000000 0.000000 0.000000 -5.716318 3.980543 30.462958 0.000000 0.000000 0.000000 23.220166 -16.369097 -8.719301 9.203538 -0.504566 12.072056 5.883706 -7.947772 -46.594010 0.000000 0.000000 0.000000 -30.663565 12.578708 -4.219223 2.961467 0.299649 -0.441796 -16.609333 11.090080 -76.776774 
-0.008689 0.896492 0.065802 -2.296842 1.395851 2.478726 0.000000 0.000000 0.000000 12.305036 -4.652434 -27.380684 4.872396 -1.279120 13.107138 -10.839070 -7.160931 13.115031 0.000000 0.000000 0.000000 0.861143 0.666134 -4.050543 -3.527468 2.346755 19.364892 -6.536106 4.845197 -17.899478 0.000000 0.000000 0.000000 6.384071 -0.866029 -3.660563 -6.997115 5.020671 34.140121 2.831289 1.001181 -27.556881 0.000000 0.000000 0.000000 -5.708010 3.636732 29.544249 0.000000 0.000000 0.000000 23.759288 -12.429232 -5.221141 5.381827 0.189537 13.194974 5.143378 -8.130303 -45.289136 0.000000 0.000000 0.000000 -31.491612 10.306922 -2.352206 5.451436 -0.357457 4.185224 -12.071155 14.802321 -68.219875 
-0.024312 0.904634 0.044663 -1.596137 3.096950 2.000790 0.000000 0.000000 0.000000 10.529444 -4.667904 -25.048830 3.185057 -1.400216 20.133968 -5.611839 -5.655786 5.956238 0.000000 0.000000 0.000000 1.235282 0.596389 -3.674956 -3.439449 2.103683 17.660913 -5.825511 4.229771 -16.316633 0.000000 0.000000 0.000000 5.537586 -0.644565 -4.000378 -7.305901 5.027829 34.305528 4.068396 2.232609 -27.001302 0.000000 0.000000 0.000000 -5.390256 3.046490 28.378604 0.000000 0.000000 0.000000 24.449415 -10.372640 -3.178189 0.584922 1.158296 14.587895 3.702767 -8.061917 -41.114203 0.000000 0.000000 0.000000 -31.804601 8.419080 -0.918075 8.613664 -1.194336 8.808284 -7.889341 15.492288 -57.792971 
-0.033747 0.911677 0.027042 -1.279021 4.395827 2.010154 0.000000 0.000000 0.000000 8.690730 -4.468709 -22.153668 1.862932 -1.466983 26.476088 -0.905114 -3.654760 -0.424870 0.000000 0.000000 0.000000 1.586655 0.533025 -3.347035 -3.581764 1.897452 15.169345 -4.965144 4.107124 -14.451539 0.000000 0.000000 0.000000 5.313131 -0.473406 -4.882320 -7.425206 4.980871 34.502438 4.919704 3.251052 -26.673943 0.000000 0.000000 0.000000 -5.213217 2.661576 27.651041 0.000000 0.000000 0.000000 24.771080 -8.673899 -1.478127 -4.722391 2.229196 15.063742 1.985734 -7.116366 -33.450874 0.000000 0.000000 0.000000 -31.781444 7.088170 0.001577 12.131799 -1.945925 11.990846 -4.366762 13.504660 -45.292534 
-0.037810 0.916654 0.011953 -1.056416 5.547070 2.260547 0.000000 0.000000 0.000000 6.554997 -4.095440 -18.858350 1.096920 -1.575370 31.209420 2.215551 -2.249943 -4.786497 0.000000 0.000000 0.000000 1.662084 0.520736 -3.274705 -3.728490 1.727648 12.929211 -4.247330 3.914490 -12.828537 0.000000 0.000000 0.000000 5.394579 -0.331669 -5.969528 -7.334233 4.849387 34.780263 5.274127 3.737634 -26.744966 0.000000 0.000000 0.000000 -4.872389 2.231105 27.146590 0.000000 0.000000 0.000000 25.314948 -7.528694 -0.248328 -10.933529 3.443131 15.109728 1.682871 -4.496808 -23.538021 0.000000 0.000000 0.000000 -31.889860 6.264402 0.567811 16.032967 -2.429469 13.420705 -1.894762 9.932198 -31.940967 
-0.037491 0.919563 -0.001416 -1.152802 6.560127 2.572971 0.000000 0.000000 0.000000 4.509220 -3.466371 -15.046682 0.974783 -1.804321 34.009995 3.488618 -3.993694 -7.620107 0.000000 0.000000 0.000000 1.683684 0.527293 -3.301142 -3.690853 1.532196 10.881067 -3.642098 3.620216 -11.367346 0.000000 0.000000 0.000000 5.752535 -0.217340 -7.177009 -7.100265 4.669774 35.222745 5.478512 3.889766 -27.261348 0.000000 0.000000 0.000000 -4.404163 1.763811 26.961729 0.000000 0.000000 0.000000 25.730982 -7.161125 0.250884 -17.408432 4.657059 14.934241 3.199246 -0.850281 -11.890251 0.000000 0.000000 0.000000 -32.033993 6.034716 0.676167 19.520629 -2.489401 13.250096 -0.442724 5.515824 -17.678286 
-0.033592 0.920580 -0.013317 -1.627441 7.324055 2.868474 0.000000 0.000000 0.000000 2.752841 -2.546816 -10.588671 2.309138 -2.238851 32.193651 4.334023 -4.742102 -9.241785 0.000000 0.000000 0.000000 1.822238 0.539015 -3.371332 -3.616862 1.349819 8.970106 -3.056309 3.452838 -9.945926 0.000000 0.000000 0.000000 6.203779 -0.124360 -8.302718 -6.864387 4.508947 35.693081 5.884915 4.248096 -27.879222 0.000000 0.000000 0.000000 -4.016425 1.372646 26.709877 0.000000 0.000000 0.000000 25.938898 -7.228404 0.334360 -22.986090 5.477523 14.075587 4.793716 2.075577 0.237231 0.000000 0.000000 0.000000 -32.102770 6.122835 0.484353 22.460091 -2.512549 13.089533 -0.831343 1.336249 -5.923611 
